<svg width="51" height="54" viewBox="0 0 51 54" fill="none" xmlns="http://www.w3.org/2000/svg">
<path d="M22.2646 53.7273C9.48893 53.7273 0.55835 44.7967 0.55835 32.021C0.55835 19.2453 9.48893 10.3147 22.2646 10.3147C27.3501 10.3147 31.9394 11.7101 35.5985 14.3459C40.9941 18.253 43.9709 24.5168 43.9709 32.021C43.9709 44.7967 35.0403 53.7273 22.2646 53.7273ZM20.7142 13.4776C10.4502 14.1288 3.65925 21.4159 3.65925 32.021C3.65925 43.1532 11.1324 50.6264 22.2646 50.6264C33.3969 50.6264 40.87 43.1532 40.87 32.021C40.87 25.5401 38.3583 20.1446 33.769 16.8576C31.0092 14.873 27.5982 13.7257 23.8151 13.4776V35.339H9.64398V32.021H20.7142V13.4776ZM45.7074 19.9895L44.126 17.3228L48.4362 14.78L50.0177 17.4468L45.7074 19.9895ZM39.6297 12.2063L37.1799 10.3147L42.7616 3.15165L45.2113 5.0432L39.6297 12.2063ZM29.7068 6.96576L26.6369 6.46961C26.7299 5.91145 26.5749 5.3843 26.1408 4.88816C24.5903 3.05863 19.8769 3.05863 18.3265 4.88816C17.9234 5.3843 17.7683 5.91145 17.8614 6.43861L14.7915 6.93475C14.5434 5.47733 14.9775 4.0199 15.9698 2.87257C17.3342 1.26011 19.6909 0.298828 22.2336 0.298828C24.8074 0.298828 27.133 1.26011 28.4974 2.87257C29.5207 4.05091 29.9549 5.50834 29.7068 6.96576Z" fill="#21201F"/>
</svg>
