<svg width="60" height="54" viewBox="0 0 60 54" fill="none" xmlns="http://www.w3.org/2000/svg">
<path d="M0.691933 35.6134C-4.96137 18.3343 25.5269 -2.45428 37.6324 10.4253C45.6378 18.9407 45.0449 39.3509 33.4389 47.2645C21.8329 55.1782 4.42895 47.0392 0.691933 35.6134Z" fill="url(#paint0_linear_1_521)"/>
<path d="M0.691933 35.6134C-4.96137 18.3343 25.5269 -2.45428 37.6324 10.4253C45.6378 18.9407 45.0449 39.3509 33.4389 47.2645C21.8329 55.1782 4.42895 47.0392 0.691933 35.6134Z" fill="white" fill-opacity="0.5"/>
<path d="M34.3291 53.2981C21.5912 54.281 12 46.0641 11.017 33.3262C10.034 20.5884 18.251 10.9972 30.9888 10.0142C36.0592 9.62289 40.7423 10.661 44.5933 13.0075C50.2735 16.4879 53.7235 22.5041 54.3009 29.986C55.2839 42.7238 47.0669 52.3151 34.3291 53.2981ZM29.6863 13.287C19.5029 14.726 13.2927 22.514 14.1087 33.0877C14.9652 44.1869 22.9913 51.0629 34.0905 50.2064C45.1897 49.3498 52.0657 41.3238 51.2092 30.2246C50.7105 23.7629 47.7911 18.5766 42.9625 15.6525C40.0581 13.8862 36.569 13.0047 32.778 13.0484L34.4601 34.8449L20.331 35.9353L20.0757 32.6272L31.1131 31.7754L29.6863 13.287ZM55.1065 17.8566L53.3245 15.3194L57.4264 12.4525L59.2083 14.9897L55.1065 17.8566ZM48.4479 10.564L45.8599 8.86656L50.8738 1.29526L53.4618 2.99272L48.4479 10.564ZM38.1512 6.10252L35.0523 5.84405C35.1021 5.28039 34.9069 4.76673 34.4359 4.30546C32.7493 2.60065 28.0499 2.9633 26.6448 4.90671C26.2811 5.4324 26.167 5.96991 26.3003 6.48835L23.2777 7.21922C22.9183 5.78521 23.239 4.2987 24.14 3.07842C25.3763 1.36576 27.6521 0.226002 30.1873 0.0303579C32.7534 -0.167672 35.1461 0.611816 36.6305 2.11452C37.7414 3.21064 38.2864 4.63034 38.1512 6.10252Z" fill="#21201F"/>
<defs>
<linearGradient id="paint0_linear_1_521" x1="41.7557" y1="16.6785" x2="2.65778" y2="39.7012" gradientUnits="userSpaceOnUse">
<stop stop-color="#FF5C4D"/>
<stop offset="0.25" stop-color="#EB469F"/>
<stop offset="0.72" stop-color="#8341EF"/>
<stop offset="1" stop-color="#3F68F9"/>
</linearGradient>
</defs>
</svg>
