<svg width="56" height="37" viewBox="0 0 56 37" fill="none" xmlns="http://www.w3.org/2000/svg">
<path d="M12.6216 36.678C10.9277 36.678 9.34995 36.3293 7.8885 35.6318C6.46026 34.9011 5.2147 33.7884 4.15182 32.2937C3.12216 30.7658 2.30839 28.8559 1.71052 26.5641C1.11265 24.2391 0.813721 21.4822 0.813721 18.2936C0.813721 15.105 1.11265 12.3647 1.71052 10.0729C2.30839 7.74786 3.12216 5.838 4.15182 4.34333C5.2147 2.84866 6.46026 1.75257 7.8885 1.05506C9.34995 0.357545 10.9277 0.00878906 12.6216 0.00878906C14.3156 0.00878906 15.8767 0.357545 17.3049 1.05506C18.7332 1.75257 19.9621 2.84866 20.9918 4.34333C22.0214 5.80479 22.8186 7.68143 23.3833 9.97326C23.9811 12.2651 24.2801 15.0053 24.2801 18.194C24.2801 21.3826 23.9811 24.1394 23.3833 26.4645C22.8186 28.7563 22.0214 30.6661 20.9918 32.194C19.9621 33.7219 18.7332 34.8512 17.3049 35.582C15.8767 36.3127 14.3156 36.678 12.6216 36.678ZM12.5718 32.7421C13.7011 32.7421 14.6976 32.493 15.5611 31.9947C16.4247 31.4965 17.1555 30.6828 17.7533 29.5535C18.3512 28.4241 18.7996 26.9461 19.0985 25.1193C19.4307 23.2592 19.5968 21.0006 19.5968 18.3434C19.5968 15.6862 19.4473 13.4442 19.1484 11.6174C18.8494 9.75736 18.401 8.26269 17.8031 7.13339C17.2053 6.00408 16.4746 5.19031 15.611 4.69209C14.7474 4.19387 13.7509 3.94476 12.6216 3.94476C11.4923 3.94476 10.4793 4.19387 9.58246 4.69209C8.71887 5.19031 7.97153 6.00408 7.34045 7.13339C6.74258 8.26269 6.27757 9.75736 5.94542 11.6174C5.64649 13.4442 5.49702 15.6862 5.49702 18.3434C5.49702 21.0006 5.64649 23.2592 5.94542 25.1193C6.27757 26.9461 6.74258 28.4241 7.34045 29.5535C7.93832 30.6828 8.66905 31.4965 9.53263 31.9947C10.4294 32.493 11.4425 32.7421 12.5718 32.7421Z" fill="#21201F"/>
<path d="M35.2005 16.5V0.45719H43.6205C47.3405 0.45719 50.2302 1.27096 52.2896 2.89848C54.3821 4.52602 55.4284 6.98392 55.4284 10.2722C55.4284 11.9662 55.1294 13.4276 54.5316 14.6566C53.9669 15.8855 53.1365 16.8986 52.0405 17.6957C50.9776 18.4597 49.6988 19.0409 48.2041 19.4395C46.7095 19.8049 45.0487 19.9876 43.2219 19.9876H39.8838V24.2225H50.2967V27.71H39.8838V36.1798H35.2005V27.71H31.1151V24.2225H35.2005V19.9876H31.1151V16.5H35.2005ZM39.8838 4.4928V16.5H43.2219C45.6466 16.5 47.49 16.0018 48.7522 15.0053C50.0476 13.9757 50.6952 12.3979 50.6952 10.2722C50.6952 8.31251 50.1306 6.86767 49.0013 5.93765C47.9052 4.97442 46.1116 4.4928 43.6205 4.4928H39.8838Z" fill="#21201F"/>
</svg>
